<?xml version="1.0" encoding="UTF-8" standalone="no"?>
<!-- Created with Inkscape (http://www.inkscape.org/) -->

<svg
   width="210mm"
height="210mm"
   viewBox="0 0 210 210"
   version="1.1"
   id="svg1"
   inkscape:version="1.3.2 (091e20e, 2023-11-25, custom)"
   sodipodi:docname="p4h_logo_v1.svg"
   inkscape:export-filename="..\..\..\..\x\passion4health\media\built-in\square-logo.svg"
   inkscape:export-xdpi="96"
   inkscape:export-ydpi="96"
   xmlns:inkscape="http://www.inkscape.org/namespaces/inkscape"
   xmlns:sodipodi="http://sodipodi.sourceforge.net/DTD/sodipodi-0.dtd"
   xmlns="http://www.w3.org/2000/svg"
   xmlns:svg="http://www.w3.org/2000/svg">
  <sodipodi:namedview
     id="namedview1"
     pagecolor="#ffffff"
     bordercolor="#000000"
     borderopacity="0.25"
     inkscape:showpageshadow="2"
     inkscape:pageopacity="0.0"
     inkscape:pagecheckerboard="0"
     inkscape:deskcolor="#d1d1d1"
     inkscape:document-units="mm"
     inkscape:zoom="0.50689534"
     inkscape:cx="397.51796"
     inkscape:cy="561.25984"
     inkscape:window-width="1366"
     inkscape:window-height="745"
     inkscape:window-x="-8"
     inkscape:window-y="-8"
     inkscape:window-maximized="1"
     inkscape:current-layer="layer1" />
  <defs
     id="defs1" />
  <g
     inkscape:label="Layer 1"
     inkscape:groupmode="layer"
     id="layer1">
    <g
       id="g19"
       transform="matrix(1.6904037,0,0,1.6904037,-23.43324,-148.63696)"
       style="display:inline">
      <path
         id="path5"
         style="font-variation-settings:'wght' 700;fill:#09cc7f;fill-opacity:1;fill-rule:nonzero;stroke-width:7.36791"
         d="m 106.39919,106.46999 a 31.806818,31.806818 0 0 0 -6.10299,0.0258 31.806818,31.806818 0 0 0 -23.60269,14.64251 31.806818,31.806818 0 0 0 -3.861263,-4.88859 48.866192,48.577045 0 0 0 -7.680668,29.29227 48.866192,48.577045 0 0 0 24.100854,38.68084 64.648102,64.265572 0 0 1 -63.287093,-59.81288 64.648102,64.265572 0 0 1 0.0217,-7.16391 31.806818,31.806818 0 0 0 -7.69152,16.65532 l -0.283704,4.2416 a 31.806818,31.806818 0 0 0 3.22306,13.69994 159.7076,159.7076 0 0 0 2.08566,3.69125 159.7076,159.7076 0 0 0 53.329562,53.32801 159.7076,159.7076 0 0 0 53.329562,-53.32801 159.7076,159.7076 0 0 0 2.08566,-3.69125 31.806818,31.806818 0 0 0 3.22306,-13.69994 l -0.28422,-4.2416 a 31.806818,31.806818 0 0 0 -28.60497,-27.4314 z m -5.10511,18.29862 h 6.69726 c 1.07482,0 1.93993,0.86513 1.93993,1.93993 v 8.67441 h 8.67441 c 1.07482,0 1.93993,0.86513 1.93993,1.93993 v 6.69727 c 0,1.07482 -0.86511,1.93993 -1.93993,1.93993 h -8.67441 v 8.67441 c 0,1.07482 -0.86511,1.94045 -1.93993,1.94045 h -6.69726 c -1.07482,0 -1.939938,-0.86563 -1.939938,-1.94045 v -8.67441 h -8.674406 c -1.074816,0 -1.94045,-0.86511 -1.94045,-1.93993 v -6.69727 c 0,-1.0748 0.865634,-1.93993 1.94045,-1.93993 h 8.674406 v -8.67441 c 0,-1.0748 0.865118,-1.93993 1.939938,-1.93993 z" />
      <path
         id="path15"
         style="font-variation-settings:'wght' 700;display:inline;fill:#072366;fill-opacity:1;stroke-width:1.97899"
         inkscape:label="for a ref of person"
         d="m 100.783,91.844523 a 44.565113,44.565113 0 0 0 -6.169654,0.187586 44.565113,44.565113 0 0 0 -36.172469,26.308471 15.368452,15.368452 0 0 1 -0.08165,0.18138 15.368452,15.368452 0 0 1 -14.056507,10.55233 15.368452,15.368452 0 0 1 -15.848128,-14.33297 15.368452,15.368452 0 0 1 0.0062,-1.97249 64.648102,64.265572 0 0 0 -0.06098,9.20667 64.648102,64.265572 0 0 0 52.466048,58.69203 45.713112,45.713112 0 0 1 -11.465967,-11.19312 44.565113,44.565113 0 0 1 -3.760494,-3.8163 44.565113,44.565113 0 0 0 3.760494,3.8163 A 45.713112,45.713112 0 0 1 60.692419,145.8743 45.713112,45.713112 0 0 1 101.72557,97.336178 45.713112,45.713112 0 0 1 128.83348,103.22574 44.565113,44.565113 0 0 0 100.783,91.844523 Z M 54.61062,139.35118 a 44.565113,44.565113 0 0 0 0.719336,5.30821 44.565113,44.565113 0 0 1 -0.719336,-5.30821 z m 1.12603,7.00061 a 44.565113,44.565113 0 0 0 0.945162,3.50573 44.565113,44.565113 0 0 1 -0.945162,-3.50573 z m 1.637109,5.42396 a 44.565113,44.565113 0 0 0 1.284159,3.10627 44.565113,44.565113 0 0 1 -1.284159,-3.10627 z m 2.213302,4.99918 a 44.565113,44.565113 0 0 0 1.672249,2.91455 44.565113,44.565113 0 0 1 -1.672249,-2.91455 z m 2.766756,4.63486 a 44.565113,44.565113 0 0 0 2.199349,2.89646 44.565113,44.565113 0 0 1 -2.199349,-2.89646 z" />
      <path
         style="font-variation-settings:'wght' 700;fill:#09cc7f;fill-opacity:1;stroke-width:1.703"
         id="path17"
         sodipodi:type="arc"
         sodipodi:cx="43.954914"
         sodipodi:cy="112.38934"
         sodipodi:rx="8.25"
         sodipodi:ry="8.25"
         sodipodi:start="0"
         sodipodi:end="6.1494419"
         sodipodi:open="true"
         sodipodi:arc-type="chord"
         d="m 52.204914,112.38934 a 8.25,8.25 0 0 1 -7.974206,8.24539 8.25,8.25 0 0 1 -8.507355,-7.69411 8.25,8.25 0 0 1 7.405411,-8.75981 8.25,8.25 0 0 1 9.002475,7.10844 z" />
    </g>
  </g>
</svg>
